<?xml version="1.0" encoding="UTF-8"?>
<svg width="28px" height="27px" viewBox="0 0 28 27" version="1.1" xmlns="http://www.w3.org/2000/svg" xmlns:xlink="http://www.w3.org/1999/xlink">
    <title>AEF63EE8-F31F-4A7F-9D44-2585AA179B60</title>
    <g id="Page-2" stroke="none" stroke-width="1" fill="none" fill-rule="evenodd">
        <g id="desktop-home" transform="translate(-1178.000000, -5160.000000)" fill="#000000" fill-rule="nonzero">
            <g id="footer" transform="translate(-1.000000, 4677.000000)">
                <g id="Group" transform="translate(1031.000000, 474.000000)">
                    <g id="instagram" transform="translate(148.000000, 9.000000)">
                        <path d="M13.5483871,0 C9.86774194,0 9.40822581,0.016875 7.96306452,0.081 C6.52016129,0.1485 5.53790323,0.374625 4.67419355,0.70875 C3.7833871,1.053 3.02693548,1.515375 2.27387097,2.26575 C1.52080645,3.016125 1.05564516,3.76875 0.711290323,4.6575 C0.375967742,5.518125 0.147903226,6.496875 0.0812903226,7.934625 C0.0135483871,9.374625 0,9.8325 0,13.5 C0,17.1675 0.0169354839,17.625375 0.0812903226,19.065375 C0.149032258,20.502 0.375967742,21.481875 0.711290323,22.3425 C1.05677419,23.229 1.52080645,23.983875 2.27387097,24.73425 C3.02693548,25.4835 3.78225806,25.948125 4.67419355,26.29125 C5.53903226,26.62425 6.52129032,26.852625 7.96306452,26.919 C9.40822581,26.9865 9.86774194,27 13.5483871,27 C17.2290323,27 17.6885484,26.983125 19.1337097,26.919 C20.5754839,26.8515 21.558871,26.62425 22.4225806,26.29125 C23.3122581,25.947 24.0698387,25.4835 24.8229032,24.73425 C25.5748387,23.983875 26.041129,23.232375 26.3854839,22.3425 C26.7196774,21.481875 26.948871,20.502 27.0154839,19.065375 C27.0832258,17.625375 27.0967742,17.1675 27.0967742,13.5 C27.0967742,9.8325 27.0798387,9.374625 27.0154839,7.934625 C26.9477419,6.498 26.7196774,5.517 26.3854839,4.6575 C26.04,3.769875 25.5748387,3.016125 24.8229032,2.26575 C24.0698387,1.515375 23.3156452,1.051875 22.4225806,0.70875 C21.558871,0.374625 20.5754839,0.147375 19.1337097,0.081 C17.6885484,0.0135 17.2290323,0 13.5483871,0 Z M13.5483871,2.43 C17.1646774,2.43 17.5959677,2.448 19.0241935,2.509875 C20.3451613,2.57175 21.0620968,2.79 21.5385484,2.97675 C22.1730645,3.220875 22.6224194,3.513375 23.098871,3.98475 C23.5719355,4.45725 23.8654839,4.906125 24.1104839,5.538375 C24.2956452,6.013125 24.5169355,6.7275 24.5767742,8.04375 C24.641129,9.468 24.6558065,9.8955 24.6558065,13.5 C24.6558065,17.1045 24.638871,17.533125 24.5722581,18.95625 C24.5033871,20.2725 24.2832258,20.986875 24.0969355,21.461625 C23.8440323,22.093875 23.556129,22.541625 23.0819355,23.016375 C22.608871,23.48775 22.1516129,23.78025 21.523871,24.024375 C21.0496774,24.208875 20.3214516,24.429375 19.0004839,24.489 C17.5620968,24.553125 17.1387097,24.56775 13.5145161,24.56775 C9.88919355,24.56775 9.46580645,24.550875 8.02854839,24.4845 C6.70645161,24.415875 5.97822581,24.1965 5.50403226,24.010875 C4.8616129,23.758875 4.42016129,23.472 3.94709677,22.9995 C3.47177419,22.528125 3.16806452,22.0725 2.93096774,21.447 C2.74467742,20.9745 2.52564516,20.248875 2.45677419,18.932625 C2.40596774,17.515125 2.38790323,17.0775 2.38790323,13.483125 C2.38790323,9.887625 2.40596774,9.448875 2.45677419,8.0145 C2.52564516,6.69825 2.74467742,5.97375 2.93096774,5.50125 C3.16806452,4.86 3.47177419,4.42125 3.94709677,3.947625 C4.42016129,3.47625 4.8616129,3.1725 5.50403226,2.937375 C5.97822581,2.750625 6.69064516,2.53125 8.0116129,2.46375 C9.45112903,2.413125 9.87451613,2.39625 13.4975806,2.39625 L13.5483871,2.43 L13.5483871,2.43 Z M13.5483871,6.56775 C9.70403226,6.56775 6.59129032,9.67275 6.59129032,13.5 C6.59129032,17.330625 9.70741935,20.43225 13.5483871,20.43225 C17.3927419,20.43225 20.5054839,17.32725 20.5054839,13.5 C20.5054839,9.669375 17.3893548,6.56775 13.5483871,6.56775 Z M13.5483871,18 C11.0532258,18 9.03225806,15.98625 9.03225806,13.5 C9.03225806,11.01375 11.0532258,9 13.5483871,9 C16.0435484,9 18.0645161,11.01375 18.0645161,13.5 C18.0645161,15.98625 16.0435484,18 13.5483871,18 Z M22.4067742,6.294375 C22.4067742,7.18875 21.6774194,7.914375 20.7809677,7.914375 C19.8833871,7.914375 19.1551613,7.187625 19.1551613,6.294375 C19.1551613,5.401125 19.8845161,4.6754987 20.7809677,4.6754987 C21.6762903,4.674375 22.4067742,5.401125 22.4067742,6.294375 Z" id="Shape"></path>
                    </g>
                </g>
            </g>
        </g>
    </g>
</svg>