<?xml version="1.0" encoding="UTF-8"?>
<svg width="102px" height="84px" viewBox="0 0 102 84" version="1.1" xmlns="http://www.w3.org/2000/svg" xmlns:xlink="http://www.w3.org/1999/xlink">
    <title>167CD7AF-B189-4EA3-98BE-0AF43A232161</title>
    <g id="Page-2" stroke="none" stroke-width="1" fill="none" fill-rule="evenodd">
        <g id="desktop-agegate" transform="translate(-334.000000, -221.000000)" fill="#626D16">
            <path d="M387.679176,218.675717 C386.349861,223.0205 381.681983,239.799876 381.696795,251.32605 L383.732424,269.83724 L387.21262,285.603772 C387.21262,285.603772 376.073125,269.67829 369.684358,263.96626 C363.295128,258.253307 343.791408,250.057686 343.791408,250.057686 C343.791408,250.057686 351.71546,262.687269 356.662901,269.080842 C361.609879,275.474877 384.561395,288.41589 384.561395,288.41589 C384.561395,288.41589 368.570732,283.003278 359.542775,284.139492 C350.515281,285.276169 341.848349,290.315433 341.848349,290.315433 C341.848349,290.315433 359.495564,292.225142 366.477246,292.89421 C373.458465,293.563278 381.643104,292.220059 381.643104,292.220059 C381.643104,292.220059 376.34482,295.700784 374.455915,298.724066 C372.566547,301.747809 371.45431,303.634415 371.45431,303.634415 C371.45431,303.634415 377.237201,301.264491 380.724802,298.996683 C384.211941,296.728875 388.564152,293.228744 388.564152,293.228744 C388.564152,293.228744 388.42437,304.533128 389.116336,305.604654 L389.808302,306.675717 L390.634496,306.149889 L390.351692,292.873417 C390.351692,292.873417 394.888582,296.805578 397.433351,298.161734 C399.978119,299.518353 404.635351,300.78071 404.635351,300.78071 C404.635351,300.78071 400.667771,294.344165 398.481714,292.787935 C396.296119,291.231243 394.785829,290.380122 394.785829,290.380122 C394.785829,290.380122 408.327996,292.808728 416.557994,289.595538 C424.787529,286.382349 433.072607,280.54279 433.072607,280.54279 C433.072607,280.54279 425.135595,279.753585 418.740348,280.772435 C412.345101,281.791747 394.191988,287.375323 394.191988,287.375323 C394.191988,287.375323 413.093073,275.879645 419.084248,269.918101 C425.074961,263.957019 433.848349,250.247594 433.848349,250.247594 C433.848349,250.247594 421.945609,253.624816 415.844737,257.111086 C409.742939,260.597355 400.924192,269.164475 399.64903,271.517303 C398.373869,273.87013 390.879808,285.318216 391.146874,285.122763 C391.414404,284.926849 395.655993,272.757481 396.406741,262.777371 C397.15749,252.798185 394.246141,241.170356 394.113765,240.257318 C393.980926,239.344281 387.679176,218.675717 387.679176,218.675717" id="Fill-1-Copy" transform="translate(387.848349, 262.675717) rotate(22.000000) translate(-387.848349, -262.675717) "></path>
        </g>
    </g>
</svg>